<?xml version="1.0" encoding="UTF-8" standalone="no"?>
<!DOCTYPE svg PUBLIC "-//W3C//DTD SVG 1.1//EN" "http://www.w3.org/Graphics/SVG/1.1/DTD/svg11.dtd">
<svg width="100%" height="100%" viewBox="0 0 520 165" version="1.1" xmlns="http://www.w3.org/2000/svg" xmlns:xlink="http://www.w3.org/1999/xlink" xml:space="preserve" xmlns:serif="http://www.serif.com/" style="fill-rule:evenodd;clip-rule:evenodd;stroke-linejoin:round;stroke-miterlimit:2;">
    <g>
        <g transform="matrix(1,0,0,1,-204.2,-419.453)">
            <g transform="matrix(1,0,0,1,368.78,525.08)">
                <g transform="matrix(52,0,0,52,0,0)">
                    <path d="M0.534,-0.122L0.268,-0.122L0.221,-0L-0.019,-0L0.287,-0.7L0.519,-0.7L0.825,-0L0.581,-0L0.534,-0.122ZM0.469,-0.292L0.401,-0.468L0.333,-0.292L0.469,-0.292Z" style="fill:white;fill-rule:nonzero;"/>
                </g>
                <g transform="matrix(52,0,0,52,40.092,0)">
                    <path d="M0.209,-0.517L0.004,-0.517L0.004,-0.7L0.65,-0.7L0.65,-0.517L0.445,-0.517L0.445,-0L0.209,-0L0.209,-0.517Z" style="fill:white;fill-rule:nonzero;"/>
                </g>
                <g transform="matrix(52,0,0,52,73.58,0)">
                    <path d="M0.424,0.016C0.349,0.016 0.281,0 0.221,-0.031C0.161,-0.062 0.114,-0.106 0.08,-0.162C0.046,-0.217 0.029,-0.28 0.029,-0.35C0.029,-0.42 0.046,-0.483 0.08,-0.539C0.114,-0.594 0.161,-0.638 0.221,-0.669C0.281,-0.7 0.349,-0.716 0.424,-0.716C0.499,-0.716 0.567,-0.7 0.627,-0.669C0.687,-0.638 0.734,-0.594 0.768,-0.539C0.802,-0.483 0.819,-0.42 0.819,-0.35C0.819,-0.28 0.802,-0.217 0.768,-0.162C0.734,-0.106 0.687,-0.062 0.627,-0.031C0.567,0 0.499,0.016 0.424,0.016ZM0.424,-0.175C0.453,-0.175 0.48,-0.182 0.504,-0.197C0.527,-0.211 0.546,-0.231 0.56,-0.258C0.574,-0.284 0.581,-0.315 0.581,-0.35C0.581,-0.385 0.574,-0.416 0.56,-0.443C0.546,-0.469 0.527,-0.489 0.504,-0.504C0.48,-0.518 0.453,-0.525 0.424,-0.525C0.395,-0.525 0.368,-0.518 0.345,-0.504C0.321,-0.489 0.302,-0.469 0.288,-0.443C0.274,-0.416 0.267,-0.385 0.267,-0.35C0.267,-0.315 0.274,-0.284 0.288,-0.258C0.302,-0.231 0.321,-0.211 0.345,-0.197C0.368,-0.182 0.395,-0.175 0.424,-0.175Z" style="fill:white;fill-rule:nonzero;"/>
                </g>
                <g transform="matrix(52,0,0,52,117.676,0)">
                    <path d="M0.682,-0L0.68,-0.319L0.528,-0.063L0.424,-0.063L0.272,-0.308L0.272,-0L0.057,-0L0.057,-0.7L0.251,-0.7L0.479,-0.327L0.701,-0.7L0.895,-0.7L0.897,-0L0.682,-0Z" style="fill:white;fill-rule:nonzero;"/>
                </g>
                <g transform="matrix(52,0,0,52,167.284,0)">
                    <rect x="0.057" y="-0.7" width="0.236" height="0.7" style="fill:white;fill-rule:nonzero;"/>
                </g>
                <g transform="matrix(52,0,0,52,185.484,0)">
                    <path d="M0.419,0.016C0.345,0.016 0.278,0.001 0.219,-0.031C0.16,-0.062 0.113,-0.105 0.08,-0.161C0.046,-0.216 0.029,-0.279 0.029,-0.35C0.029,-0.421 0.046,-0.484 0.08,-0.54C0.113,-0.595 0.16,-0.639 0.219,-0.67C0.278,-0.7 0.345,-0.716 0.419,-0.716C0.487,-0.716 0.548,-0.704 0.601,-0.68C0.654,-0.656 0.698,-0.621 0.733,-0.576L0.584,-0.443C0.541,-0.498 0.49,-0.525 0.431,-0.525C0.382,-0.525 0.342,-0.509 0.312,-0.478C0.282,-0.446 0.267,-0.403 0.267,-0.35C0.267,-0.297 0.282,-0.254 0.312,-0.223C0.342,-0.191 0.382,-0.175 0.431,-0.175C0.49,-0.175 0.541,-0.202 0.584,-0.257L0.733,-0.124C0.698,-0.079 0.654,-0.044 0.601,-0.02C0.548,0.004 0.487,0.016 0.419,0.016Z" style="fill:white;fill-rule:nonzero;"/>
                </g>
            </g>
            <g transform="matrix(1,0,0,1,592.949,525.08)">
                <g transform="matrix(52,0,0,52,0,0)">
                    <path d="M0.699,-0.7L0.699,-0L0.626,-0L0.626,-0.323L0.188,-0.323L0.188,-0L0.114,-0L0.114,-0.7L0.188,-0.7L0.188,-0.388L0.626,-0.388L0.626,-0.7L0.699,-0.7Z" style="fill:white;fill-rule:nonzero;"/>
                </g>
                <g transform="matrix(52,0,0,52,42.276,0)">
                    <path d="M0.396,0.006C0.305,0.006 0.235,-0.02 0.184,-0.072C0.133,-0.124 0.108,-0.2 0.108,-0.299L0.108,-0.7L0.182,-0.7L0.182,-0.302C0.182,-0.221 0.2,-0.16 0.237,-0.12C0.274,-0.08 0.327,-0.06 0.396,-0.06C0.466,-0.06 0.519,-0.08 0.556,-0.12C0.593,-0.16 0.611,-0.221 0.611,-0.302L0.611,-0.7L0.683,-0.7L0.683,-0.299C0.683,-0.2 0.658,-0.124 0.608,-0.072C0.557,-0.02 0.487,0.006 0.396,0.006Z" style="fill:white;fill-rule:nonzero;"/>
                </g>
                <g transform="matrix(52,0,0,52,83.46,0)">
                    <path d="M0.555,-0.361C0.601,-0.351 0.636,-0.331 0.662,-0.302C0.687,-0.272 0.699,-0.234 0.699,-0.187C0.699,-0.127 0.677,-0.081 0.633,-0.049C0.588,-0.016 0.523,-0 0.436,-0L0.114,-0L0.114,-0.7L0.416,-0.7C0.494,-0.7 0.555,-0.684 0.598,-0.653C0.641,-0.622 0.662,-0.577 0.662,-0.52C0.662,-0.481 0.653,-0.448 0.634,-0.422C0.615,-0.395 0.588,-0.374 0.555,-0.361ZM0.188,-0.639L0.188,-0.385L0.411,-0.385C0.468,-0.385 0.511,-0.396 0.542,-0.418C0.573,-0.439 0.588,-0.471 0.588,-0.512C0.588,-0.553 0.573,-0.585 0.542,-0.607C0.511,-0.628 0.468,-0.639 0.411,-0.639L0.188,-0.639ZM0.435,-0.061C0.498,-0.061 0.545,-0.072 0.577,-0.093C0.609,-0.114 0.625,-0.148 0.625,-0.193C0.625,-0.28 0.562,-0.324 0.435,-0.324L0.188,-0.324L0.188,-0.061L0.435,-0.061Z" style="fill:white;fill-rule:nonzero;"/>
                </g>
            </g>
        </g>
        <g transform="matrix(1,0,0,1,105.204,142.513)">
            <path d="M0,4.437C-1.499,6.364 -3.285,8.011 -5.313,8.96C-6.328,9.435 -7.4,9.686 -8.471,9.824C-9.56,9.861 -10.641,9.859 -11.713,9.569C-13.856,9.09 -15.933,8.046 -17.833,6.666C-19.741,5.296 -21.515,3.653 -23.15,1.858C-24.782,0.058 -26.324,-1.851 -27.76,-3.856C-28.59,-5.038 -29.39,-6.243 -30.171,-7.463C-31.898,-6.32 -33.656,-5.215 -35.452,-4.16C-32.927,-0.677 -30.143,2.652 -26.931,5.643C-24.945,7.486 -22.803,9.217 -20.387,10.63C-17.989,12.041 -15.283,13.171 -12.345,13.511C-10.889,13.723 -9.373,13.593 -7.916,13.353C-6.464,13.014 -5.062,12.495 -3.816,11.734C-1.33,10.204 0.537,8.022 1.875,5.689C4.545,0.982 5.699,-4.179 6.299,-9.286C5.557,-6.816 4.747,-4.379 3.707,-2.061C2.694,0.262 1.49,2.491 0,4.437" style="fill:#ea923e;fill-rule:nonzero;"/>
        </g>
        <g transform="matrix(1,0,0,1,30.7535,15.2714)">
            <path d="M0,117.999C-0.731,117.132 -1.242,116.012 -1.661,114.816L-1.941,113.891L-2.14,112.91L-2.219,112.519L-2.24,112.418L-2.3,111.906L-2.427,110.88C-2.507,109.478 -2.541,108.045 -2.411,106.581C-2.194,103.658 -1.611,100.684 -0.84,97.733C0.733,91.827 3.089,86.026 5.817,80.397C8.533,74.76 11.65,69.302 15.042,63.984C15.103,64.289 15.163,64.593 15.225,64.897C15.5,66.233 15.786,67.565 16.087,68.895L0.02,105.648C0.006,105.794 -0.014,105.939 -0.026,106.084L27.561,106.084L28.172,104.498C28.173,104.502 28.175,104.506 28.177,104.509C28.179,104.507 28.181,104.504 28.184,104.502C28.561,105.295 28.933,106.089 29.327,106.875C30.246,108.724 31.217,110.549 32.22,112.357C30.333,113.509 28.42,114.601 26.481,115.622C23.793,117.018 21.046,118.261 18.262,119.243C15.483,120.203 12.654,120.986 9.924,121.206C9.247,121.249 8.563,121.313 7.911,121.279C7.239,121.3 6.617,121.204 5.979,121.148C5.168,121.018 4.396,120.823 3.669,120.565C3.293,120.433 2.925,120.287 2.579,120.113C2.035,119.817 1.534,119.469 1.069,119.075C0.686,118.75 0.327,118.395 0,117.999M56.217,72.344L40.502,72.344L48.359,52.008L56.217,72.344ZM19.858,37.843C21.412,37.858 22.965,37.893 24.515,37.948C25.561,37.993 26.606,38.051 27.651,38.112L27.651,38.116C28.251,38.152 28.867,38.193 29.488,38.236C29.997,38.272 30.513,38.31 31.03,38.35C31.187,38.362 31.344,38.374 31.501,38.386C32.392,38.456 33.29,38.534 34.187,38.616C35.04,38.695 35.892,38.773 36.744,38.866C37.822,38.98 38.884,39.103 39.907,39.234C45.024,39.866 50.124,40.689 55.182,41.725C60.247,42.729 65.271,43.928 70.23,45.331C70.445,45.39 70.659,45.454 70.874,45.514C71.685,45.741 72.493,45.976 73.299,46.217C73.716,46.341 74.133,46.466 74.55,46.594C75.007,46.735 75.464,46.881 75.92,47.026C76.417,47.185 76.914,47.343 77.409,47.506C78.016,47.705 78.622,47.905 79.226,48.11C81.127,48.755 83.02,49.424 84.896,50.13C86.541,50.748 88.167,51.407 89.784,52.085C87.045,56.788 84.055,61.365 80.835,65.786C80.608,66.098 80.371,66.403 80.142,66.714L73.001,50.38C71.805,50.018 70.605,49.665 69.399,49.333C64.439,47.931 59.415,46.732 54.351,45.727C49.293,44.691 44.193,43.869 39.076,43.237C35.744,42.809 31.327,42.381 27.787,42.128L25.795,46.685C25.808,46.683 25.819,46.68 25.832,46.678C25.837,46.73 25.841,46.784 25.847,46.837C26.363,51.821 27.104,56.793 28.04,61.731C28.946,66.676 30.064,71.589 31.343,76.455C32.598,81.329 34.073,86.143 35.69,90.901C35.815,91.265 35.948,91.626 36.079,91.987L57.963,91.987C57.361,92.567 56.765,93.154 56.157,93.727C51.627,97.977 46.906,102.02 41.954,105.711C40.67,106.685 39.368,107.63 38.05,108.549C36.413,105.201 34.907,101.78 33.518,98.306C33.008,97.033 32.517,95.752 32.036,94.468L32.366,93.612C32.173,93.678 31.98,93.741 31.788,93.806C31.295,92.474 30.814,91.137 30.354,89.793C29.544,87.413 28.771,85.02 28.043,82.613C27.316,80.206 26.633,77.784 26.006,75.347C25.367,72.914 24.768,70.469 24.215,68.015C23.662,65.56 23.156,63.096 22.703,60.623C22.394,58.991 22.114,57.353 21.848,55.715C21.776,55.272 21.706,54.83 21.638,54.387C21.632,54.353 21.627,54.319 21.622,54.285C21.568,53.94 21.509,53.597 21.458,53.252C21.455,53.232 21.452,53.212 21.449,53.193C21.443,53.153 21.438,53.113 21.433,53.074C21.256,51.872 21.09,50.668 20.938,49.464C20.874,48.945 20.82,48.425 20.76,47.906C20.675,47.181 20.585,46.455 20.51,45.728C20.504,45.675 20.5,45.622 20.495,45.569C20.216,42.997 20.003,40.419 19.858,37.843M20.566,15.999C20.93,13.588 21.375,11.191 22.028,8.896C22.662,6.598 23.458,4.371 24.496,2.353C25.539,0.349 26.8,-1.473 28.342,-2.777C29.896,-4.035 31.678,-4.823 33.681,-4.919C35.68,-5.028 37.836,-4.439 39.918,-3.472C42.005,-2.484 44.002,-1.109 45.896,0.44C49.704,3.549 53.04,7.388 56.127,11.416C57.571,13.297 58.939,15.249 60.261,17.237C58.016,18.889 55.837,20.623 53.727,22.426C56.08,20.942 58.447,19.494 60.861,18.14C62.179,20.116 63.428,22.141 64.67,24.182C63.824,21.947 62.868,19.755 61.867,17.576C61.882,17.568 61.897,17.559 61.912,17.551C64.676,16.009 67.49,14.572 70.368,13.315C73.245,12.061 76.16,10.928 79.126,10.069C82.088,9.234 85.108,8.621 88.051,8.566C88.779,8.548 89.505,8.563 90.217,8.617C92.363,8.779 94.392,9.293 96.016,10.317C97.104,10.984 97.994,11.863 98.722,12.863C99.242,13.591 99.627,14.428 99.935,15.311C100.055,15.655 100.166,16.004 100.264,16.359L100.49,17.334C100.547,17.668 100.582,18.013 100.631,18.35L100.703,18.857L100.73,19.381L100.794,20.427C100.792,21.847 100.735,23.282 100.522,24.735C100.136,27.639 99.382,30.554 98.454,33.43C97.118,37.507 95.387,41.497 93.428,45.394C91.547,44.527 89.648,43.705 87.74,42.915C84.393,41.542 80.996,40.312 77.571,39.182C77.57,39.182 77.569,39.182 77.569,39.181C76.836,38.939 76.103,38.703 75.369,38.469C74.402,38.164 73.436,37.859 72.465,37.571C70.558,37.015 68.64,36.5 66.717,36.005L61.995,25.201L35.187,25.201L32.856,30.533C32.676,30.521 32.497,30.515 32.317,30.503C31.238,30.437 30.158,30.379 29.078,30.334C27.624,30.273 26.168,30.23 24.71,30.214C23.021,30.196 21.329,30.216 19.637,30.255C19.622,25.455 19.894,20.669 20.566,15.999M61.751,99.686C62.966,98.537 64.164,97.372 65.348,96.193C68.765,92.792 72.056,89.27 75.22,85.64C78.177,82.183 81.032,78.634 83.756,74.983C84.914,73.433 86.055,71.868 87.159,70.275C90.513,65.397 93.669,60.367 96.453,55.107C96.724,54.595 96.996,54.084 97.26,53.568C98.107,51.904 98.926,50.224 99.708,48.522C100.295,47.246 100.864,45.959 101.396,44.653C102.626,41.602 103.726,38.482 104.613,35.271C105.503,32.062 106.16,28.752 106.426,25.331C106.576,23.626 106.56,21.876 106.456,20.122L106.304,18.793L106.223,18.131L106.089,17.464C105.996,17.02 105.916,16.578 105.808,16.135L105.411,14.811C105.208,14.227 104.98,13.644 104.723,13.069C104.211,11.924 103.579,10.813 102.759,9.806C101.529,8.311 100.01,7.027 98.307,6.168C96.609,5.294 94.792,4.792 93.014,4.575C91.231,4.354 89.476,4.374 87.774,4.561C84.365,4.936 81.172,5.906 78.112,7.068C75.063,8.263 72.134,9.67 69.346,11.292C66.573,12.878 63.905,14.609 61.329,16.455C60.295,14.327 59.199,12.225 58.014,10.16C55.409,5.647 52.357,1.341 48.604,-2.523C46.702,-4.43 44.589,-6.197 42.149,-7.652C39.705,-9.072 36.851,-10.177 33.687,-10.293C30.53,-10.451 27.262,-9.311 24.73,-7.484C22.2,-5.63 20.335,-3.24 18.88,-0.776C15.989,4.192 14.474,9.509 13.458,14.792C12.431,20.071 12.024,25.378 11.883,30.659C10.75,30.753 9.618,30.853 8.486,30.981C3.083,31.6 -2.319,32.576 -7.613,34.261C-9.425,34.834 -11.218,35.507 -12.983,36.289L-12.985,36.289C-13.301,36.429 -13.615,36.574 -13.93,36.72C-14.424,36.95 -14.917,37.186 -15.406,37.438C-15.721,37.603 -16.036,37.771 -16.349,37.945C-16.662,38.119 -16.974,38.298 -17.284,38.483C-18.832,39.406 -20.33,40.47 -21.707,41.738C-21.982,41.992 -22.253,42.253 -22.519,42.524L-23.303,43.345C-23.554,43.632 -23.786,43.945 -24.026,44.245C-24.522,44.828 -24.922,45.512 -25.332,46.176C-25.371,46.233 -25.399,46.299 -25.435,46.36C-25.596,46.638 -25.729,46.938 -25.872,47.228C-25.952,47.411 -26.04,47.587 -26.124,47.766C-26.208,47.945 -26.287,48.126 -26.349,48.316C-26.472,48.697 -26.6,49.075 -26.714,49.456C-26.828,49.837 -26.928,50.222 -26.992,50.618C-27.288,52.186 -27.296,53.801 -27.039,55.327C-26.975,55.709 -26.898,56.086 -26.808,56.457C-26.74,56.736 -26.666,57.012 -26.583,57.283C-26.339,58.099 -26.032,58.884 -25.675,59.63C-25.199,60.628 -24.652,61.565 -24.053,62.451C-23.854,62.747 -23.648,63.036 -23.438,63.32C-23.017,63.888 -22.576,64.435 -22.12,64.963C-21.663,65.491 -21.192,65.999 -20.711,66.492C-18.784,68.466 -16.683,70.196 -14.47,71.729C-13.918,72.115 -13.362,72.491 -12.801,72.858C-11.679,73.591 -10.537,74.287 -9.379,74.947C-8.8,75.277 -8.217,75.6 -7.631,75.913C-5.871,76.854 -4.078,77.722 -2.263,78.526C-1.658,78.795 -1.05,79.057 -0.44,79.312C-1.555,78.6 -2.662,77.881 -3.755,77.145C-4.847,76.41 -5.925,75.657 -6.979,74.875C-8.041,74.106 -9.083,73.315 -10.1,72.499C-11.116,71.682 -12.107,70.839 -13.065,69.967C-13.541,69.528 -14.012,69.086 -14.475,68.638C-15.401,67.742 -16.295,66.822 -17.134,65.868C-17.553,65.39 -17.958,64.904 -18.347,64.407C-18.736,63.915 -19.111,63.411 -19.465,62.899C-19.643,62.643 -19.815,62.385 -19.982,62.124C-20.482,61.344 -20.932,60.545 -21.316,59.733C-21.572,59.191 -21.798,58.644 -21.991,58.091C-22.088,57.816 -22.177,57.541 -22.257,57.265C-22.496,56.437 -22.65,55.609 -22.708,54.794C-22.746,54.251 -22.741,53.714 -22.689,53.188C-22.638,52.663 -22.539,52.147 -22.39,51.647C-22.319,51.396 -22.237,51.148 -22.145,50.905C-21.992,50.503 -21.803,50.114 -21.594,49.733C-21.297,49.193 -20.953,48.672 -20.557,48.178C-20.05,47.546 -19.47,46.953 -18.831,46.401C-17.128,44.929 -15.054,43.73 -12.837,42.761C-10.617,41.789 -8.247,41.05 -5.835,40.416C-0.084,38.987 5.894,38.261 11.938,37.979C12.048,41.229 12.276,44.468 12.601,47.694L12.601,47.696C12.844,50.112 13.138,52.521 13.485,54.92C13.497,54.998 13.51,55.075 13.521,55.152C13.682,56.264 13.853,57.374 14.034,58.481C14.177,59.353 14.333,60.222 14.488,61.09C10.043,66.583 5.945,72.384 2.298,78.511C-0.969,84.08 -3.867,89.926 -5.965,96.197C-7.016,99.331 -7.848,102.58 -8.291,105.98C-8.532,107.675 -8.603,109.427 -8.591,111.2C-8.492,112.99 -8.345,114.808 -7.801,116.645C-7.269,118.467 -6.523,120.325 -5.294,121.977C-4.965,122.426 -4.604,122.853 -4.225,123.266C-3.21,124.365 -2.032,125.326 -0.748,126.087C-0.221,126.391 0.319,126.652 0.866,126.886C2.167,127.44 3.512,127.815 4.843,128.075C5.782,128.21 6.733,128.362 7.653,128.378C8.59,128.45 9.494,128.408 10.403,128.378C14.025,128.197 17.411,127.387 20.652,126.348C21.867,125.953 23.055,125.512 24.231,125.05C26.188,124.281 28.101,123.438 29.968,122.528C32.12,121.453 34.22,120.307 36.276,119.101C38.154,117.999 39.992,116.844 41.796,115.645C48.938,110.904 55.53,105.462 61.751,99.686" style="fill:#ea923e;fill-rule:nonzero;"/>
        </g>
        <g transform="matrix(1,0,0,1,156.062,97.7704)">
            <path d="M0,-8.388C-0.08,-8.75 -0.171,-9.106 -0.271,-9.457C-0.305,-9.575 -0.343,-9.691 -0.379,-9.807C-0.45,-10.037 -0.521,-10.268 -0.6,-10.494C-0.647,-10.632 -0.699,-10.767 -0.75,-10.903C-0.824,-11.104 -0.901,-11.304 -0.981,-11.501C-1.04,-11.644 -1.1,-11.784 -1.161,-11.925C-1.241,-12.112 -1.325,-12.296 -1.411,-12.479C-1.477,-12.621 -1.544,-12.763 -1.613,-12.904C-1.7,-13.079 -1.791,-13.253 -1.882,-13.427C-1.956,-13.567 -2.028,-13.708 -2.104,-13.846C-2.198,-14.017 -2.296,-14.184 -2.394,-14.352C-2.472,-14.486 -2.547,-14.622 -2.628,-14.755C-2.783,-15.012 -2.943,-15.265 -3.106,-15.516C-3.119,-15.536 -3.131,-15.557 -3.145,-15.577C-3.145,-15.576 -3.146,-15.576 -3.146,-15.575C-3.357,-15.9 -3.572,-16.221 -3.793,-16.534C-5.48,-18.907 -7.423,-20.992 -9.49,-22.884C-13.367,-26.443 -17.634,-29.381 -22.052,-31.973C-23.006,-29.775 -24.038,-27.619 -25.113,-25.489C-23.299,-24.515 -21.531,-23.476 -19.806,-22.388C-17.664,-21.059 -15.625,-19.603 -13.715,-18.038C-11.814,-16.468 -10.024,-14.793 -8.53,-12.96C-8.232,-12.596 -7.95,-12.222 -7.679,-11.845C-7.145,-11.103 -6.666,-10.338 -6.255,-9.56C-6.245,-9.54 -6.234,-9.521 -6.224,-9.501C-6.035,-9.14 -5.864,-8.775 -5.707,-8.408C-5.678,-8.341 -5.651,-8.275 -5.624,-8.208C-5.474,-7.842 -5.334,-7.474 -5.218,-7.104C-5.142,-6.848 -5.075,-6.592 -5.019,-6.336C-4.907,-5.825 -4.838,-5.311 -4.811,-4.798C-4.797,-4.541 -4.794,-4.285 -4.802,-4.03C-4.818,-3.518 -4.876,-3.008 -4.977,-2.503C-5.078,-1.997 -5.222,-1.495 -5.409,-0.999C-5.6,-0.505 -5.837,-0.021 -6.116,0.451C-6.671,1.395 -7.388,2.291 -8.214,3.126C-8.42,3.334 -8.634,3.539 -8.853,3.739C-9.072,3.94 -9.297,4.136 -9.528,4.329C-9.988,4.717 -10.47,5.09 -10.969,5.446C-11.908,6.115 -12.913,6.724 -13.954,7.29C-14.301,7.478 -14.652,7.662 -15.006,7.841C-15.284,7.982 -15.558,8.129 -15.839,8.264C-16.156,8.415 -16.48,8.552 -16.802,8.696C-18.229,9.332 -19.694,9.905 -21.19,10.425C-21.8,10.638 -22.415,10.843 -23.033,11.043C-23.821,11.297 -24.618,11.53 -25.418,11.756C-26.5,12.06 -27.59,12.345 -28.689,12.605C-29.326,12.757 -29.965,12.9 -30.606,13.039C-31.202,13.174 -31.8,13.301 -32.398,13.424L-39.469,-2.75C-42.026,0.639 -44.689,3.946 -47.446,7.169C-50.853,11.077 -54.411,14.854 -58.111,18.496L-56.15,23.585L-27.957,23.585L-31.99,14.359C-28.818,14.178 -25.645,13.824 -22.486,13.243C-20.501,12.895 -18.533,12.421 -16.582,11.828C-15.932,11.63 -15.284,11.42 -14.637,11.196C-14.315,11.081 -13.994,10.964 -13.673,10.841C-12.709,10.476 -11.752,10.077 -10.809,9.629C-9.55,9.03 -8.316,8.346 -7.124,7.544C-4.766,5.937 -2.53,3.803 -1.096,0.964C0.331,-1.862 0.681,-5.327 0,-8.388" style="fill:#ea923e;fill-rule:nonzero;"/>
        </g>
    </g>
</svg>
